<svg width="34" height="34" viewBox="0 0 34 34" fill="none" xmlns="http://www.w3.org/2000/svg">
<path d="M19.4508 29.75C19.2017 30.1794 18.8443 30.5358 18.4141 30.7835C17.984 31.0313 17.4963 31.1617 17 31.1617C16.5036 31.1617 16.0159 31.0313 15.5858 30.7835C15.1557 30.5358 14.7982 30.1794 14.5491 29.75M31.1666 24.0833H2.83331C3.96048 24.0833 5.04149 23.6356 5.83852 22.8385C6.63555 22.0415 7.08331 20.9605 7.08331 19.8333V12.75C7.08331 10.1199 8.1281 7.5976 9.98784 5.73787C11.8476 3.87813 14.3699 2.83334 17 2.83334C19.63 2.83334 22.1524 3.87813 24.0121 5.73787C25.8719 7.5976 26.9166 10.1199 26.9166 12.75V19.8333C26.9166 20.9605 27.3644 22.0415 28.1614 22.8385C28.9585 23.6356 30.0395 24.0833 31.1666 24.0833Z" stroke="#111111" stroke-width="2" stroke-linecap="round" stroke-linejoin="round"/>
</svg>
