<svg width="54" height="56" viewBox="0 0 54 56" fill="none" xmlns="http://www.w3.org/2000/svg">
<mask id="path-1-inside-1_15_3" fill="white">
<path fill-rule="evenodd" clip-rule="evenodd" d="M0.75 44.151V42.875C0.75 34.1469 18.2391 29.75 27 29.75C35.7609 29.75 53.25 34.1469 53.25 42.875V44.151C46.8367 51.4171 37.4536 56 27 56C16.5464 56 7.16326 51.4171 0.75 44.151ZM27 0.583328C19.7484 0.583328 13.875 6.45677 13.875 13.7083C13.875 20.9599 19.7484 26.8333 27 26.8333C34.2516 26.8333 40.125 20.9599 40.125 13.7083C40.125 6.45677 34.2516 0.583328 27 0.583328Z"/>
</mask>
<path fill-rule="evenodd" clip-rule="evenodd" d="M0.75 44.151V42.875C0.75 34.1469 18.2391 29.75 27 29.75C35.7609 29.75 53.25 34.1469 53.25 42.875V44.151C46.8367 51.4171 37.4536 56 27 56C16.5464 56 7.16326 51.4171 0.75 44.151ZM27 0.583328C19.7484 0.583328 13.875 6.45677 13.875 13.7083C13.875 20.9599 19.7484 26.8333 27 26.8333C34.2516 26.8333 40.125 20.9599 40.125 13.7083C40.125 6.45677 34.2516 0.583328 27 0.583328Z" fill="#EEEEEE"/>
<path d="M0.75 44.151H-1.25V44.9073L-0.749478 45.4744L0.75 44.151ZM53.25 44.151L54.7495 45.4744L55.25 44.9073V44.151H53.25ZM2.75 44.151V42.875H-1.25V44.151H2.75ZM2.75 42.875C2.75 41.4275 3.45921 40.0117 4.97601 38.6117C6.50639 37.1993 8.72176 35.9422 11.3334 34.896C16.5599 32.8023 22.8695 31.75 27 31.75V27.75C22.3695 27.75 15.5542 28.8961 9.84591 31.1829C6.99016 32.3269 4.2857 33.8056 2.2631 35.6723C0.22692 37.5516 -1.25 39.9584 -1.25 42.875H2.75ZM27 31.75C31.1305 31.75 37.4401 32.8023 42.6666 34.896C45.2782 35.9422 47.4936 37.1993 49.024 38.6117C50.5408 40.0117 51.25 41.4275 51.25 42.875H55.25C55.25 39.9584 53.7731 37.5516 51.7369 35.6723C49.7143 33.8056 47.0098 32.3269 44.1541 31.1829C38.4458 28.8961 31.6305 27.75 27 27.75V31.75ZM51.25 42.875V44.151H55.25V42.875H51.25ZM51.7505 42.8275C45.7008 49.6818 36.8559 54 27 54V58C38.0512 58 47.9727 53.1525 54.7495 45.4744L51.7505 42.8275ZM27 54C17.1441 54 8.2992 49.6818 2.24948 42.8275L-0.749478 45.4744C6.02733 53.1525 15.9488 58 27 58V54ZM15.875 13.7083C15.875 7.56134 20.853 2.58333 27 2.58333V-1.41667C18.6439 -1.41667 11.875 5.3522 11.875 13.7083H15.875ZM27 24.8333C20.853 24.8333 15.875 19.8553 15.875 13.7083H11.875C11.875 22.0645 18.6439 28.8333 27 28.8333V24.8333ZM38.125 13.7083C38.125 19.8553 33.147 24.8333 27 24.8333V28.8333C35.3561 28.8333 42.125 22.0645 42.125 13.7083H38.125ZM27 2.58333C33.147 2.58333 38.125 7.56134 38.125 13.7083H42.125C42.125 5.3522 35.3561 -1.41667 27 -1.41667V2.58333Z" fill="#AAAAAA" mask="url(#path-1-inside-1_15_3)"/>
</svg>
