<svg width="33" height="33" viewBox="0 0 33 33" fill="none" xmlns="http://www.w3.org/2000/svg">
<g clip-path="url(#clip0_2_172)">
<path d="M16.6155 20.6122C18.8228 20.6122 20.6122 18.8228 20.6122 16.6155C20.6122 14.4082 18.8228 12.6188 16.6155 12.6188C14.4082 12.6188 12.6188 14.4082 12.6188 16.6155C12.6188 18.8228 14.4082 20.6122 16.6155 20.6122Z" stroke="white" stroke-width="2" stroke-linecap="round" stroke-linejoin="round"/>
<path d="M26.4741 20.6122C26.2968 21.0141 26.2439 21.4598 26.3222 21.892C26.4006 22.3242 26.6066 22.7229 26.9138 23.0369L26.9937 23.1169C27.2414 23.3643 27.438 23.6582 27.572 23.9817C27.7061 24.3051 27.7752 24.6518 27.7752 25.002C27.7752 25.3521 27.7061 25.6989 27.572 26.0223C27.438 26.3458 27.2414 26.6397 26.9937 26.8871C26.7462 27.1349 26.4524 27.3314 26.1289 27.4655C25.8054 27.5996 25.4587 27.6686 25.1086 27.6686C24.7584 27.6686 24.4117 27.5996 24.0882 27.4655C23.7648 27.3314 23.4709 27.1349 23.2234 26.8871L23.1435 26.8072C22.8295 26.5001 22.4307 26.294 21.9986 26.2157C21.5664 26.1373 21.1206 26.1902 20.7188 26.3675C20.3248 26.5364 19.9887 26.8168 19.752 27.1743C19.5153 27.5317 19.3883 27.9505 19.3866 28.3792V28.6057C19.3866 29.3124 19.1059 29.9901 18.6062 30.4898C18.1065 30.9895 17.4288 31.2702 16.7221 31.2702C16.0154 31.2702 15.3377 30.9895 14.838 30.4898C14.3383 29.9901 14.0576 29.3124 14.0576 28.6057V28.4858C14.0473 28.0448 13.9045 27.6172 13.6479 27.2584C13.3913 26.8996 13.0327 26.6264 12.6188 26.4741C12.2169 26.2968 11.7712 26.2439 11.339 26.3222C10.9069 26.4006 10.5081 26.6066 10.1941 26.9138L10.1142 26.9937C9.86669 27.2414 9.57283 27.438 9.24937 27.572C8.9259 27.7061 8.57918 27.7752 8.22903 27.7752C7.87887 27.7752 7.53215 27.7061 7.20869 27.572C6.88522 27.438 6.59136 27.2414 6.3439 26.9937C6.09617 26.7462 5.89964 26.4524 5.76555 26.1289C5.63146 25.8054 5.56244 25.4587 5.56244 25.1086C5.56244 24.7584 5.63146 24.4117 5.76555 24.0882C5.89964 23.7648 6.09617 23.4709 6.3439 23.2234L6.42384 23.1435C6.73097 22.8295 6.937 22.4307 7.01536 21.9986C7.09372 21.5664 7.04082 21.1206 6.86348 20.7188C6.6946 20.3248 6.41418 19.9887 6.05676 19.752C5.69933 19.5153 5.28049 19.3883 4.85179 19.3866H4.62531C3.91864 19.3866 3.24092 19.1059 2.74123 18.6062C2.24154 18.1065 1.96082 17.4288 1.96082 16.7221C1.96082 16.0154 2.24154 15.3377 2.74123 14.838C3.24092 14.3383 3.91864 14.0576 4.62531 14.0576H4.74521C5.18617 14.0473 5.61384 13.9045 5.9726 13.6479C6.33137 13.3913 6.60464 13.0327 6.7569 12.6188C6.93424 12.2169 6.98714 11.7712 6.90878 11.339C6.83042 10.9069 6.62439 10.5081 6.31726 10.1941L6.23732 10.1142C5.98959 9.86669 5.79306 9.57283 5.65897 9.24937C5.52488 8.9259 5.45586 8.57918 5.45586 8.22903C5.45586 7.87887 5.52488 7.53215 5.65897 7.20869C5.79306 6.88522 5.98959 6.59136 6.23732 6.3439C6.48478 6.09617 6.77864 5.89964 7.10211 5.76555C7.42557 5.63146 7.77229 5.56244 8.12245 5.56244C8.4726 5.56244 8.81932 5.63146 9.14279 5.76555C9.46625 5.89964 9.76012 6.09617 10.0076 6.3439L10.0875 6.42384C10.4015 6.73097 10.8003 6.937 11.2325 7.01536C11.6646 7.09372 12.1104 7.04082 12.5122 6.86348H12.6188C13.0128 6.6946 13.3489 6.41418 13.5856 6.05676C13.8223 5.69933 13.9493 5.28049 13.951 4.85179V4.62531C13.951 3.91864 14.2317 3.24092 14.7314 2.74123C15.2311 2.24154 15.9088 1.96082 16.6155 1.96082C17.3222 1.96082 17.9999 2.24154 18.4996 2.74123C18.9993 3.24092 19.28 3.91864 19.28 4.62531V4.74521C19.2817 5.17391 19.4087 5.59275 19.6454 5.95018C19.8822 6.30761 20.2182 6.58802 20.6122 6.7569C21.0141 6.93424 21.4598 6.98714 21.892 6.90878C22.3242 6.83042 22.7229 6.62439 23.0369 6.31726L23.1169 6.23732C23.3643 5.98959 23.6582 5.79306 23.9817 5.65897C24.3051 5.52488 24.6518 5.45586 25.002 5.45586C25.3521 5.45586 25.6989 5.52488 26.0223 5.65897C26.3458 5.79306 26.6397 5.98959 26.8871 6.23732C27.1349 6.48478 27.3314 6.77864 27.4655 7.10211C27.5996 7.42557 27.6686 7.77229 27.6686 8.12245C27.6686 8.4726 27.5996 8.81932 27.4655 9.14279C27.3314 9.46625 27.1349 9.76012 26.8871 10.0076L26.8072 10.0875C26.5001 10.4015 26.294 10.8003 26.2157 11.2325C26.1373 11.6646 26.1902 12.1104 26.3675 12.5122V12.6188C26.5364 13.0128 26.8168 13.3489 27.1743 13.5856C27.5317 13.8223 27.9505 13.9493 28.3792 13.951H28.6057C29.3124 13.951 29.9901 14.2317 30.4898 14.7314C30.9895 15.2311 31.2702 15.9088 31.2702 16.6155C31.2702 17.3222 30.9895 17.9999 30.4898 18.4996C29.9901 18.9993 29.3124 19.28 28.6057 19.28H28.4858C28.0571 19.2817 27.6383 19.4087 27.2808 19.6454C26.9234 19.8822 26.643 20.2182 26.4741 20.6122V20.6122Z" stroke="white" stroke-width="2" stroke-linecap="round" stroke-linejoin="round"/>
</g>
<defs>
<clipPath id="clip0_2_172">
<rect width="31.9739" height="31.9739" fill="white" transform="translate(0.628571 0.628571)"/>
</clipPath>
</defs>
</svg>
